<svg width="219" height="42" viewBox="0 0 219 42" fill="none" xmlns="http://www.w3.org/2000/svg">
<path d="M31.0448 8.33703L15.7413 20.0241L15.4859 20.1898L15.2306 20.337L14.9752 20.4475L14.7199 20.5579L14.4645 20.6131L14.1544 20.6683L13.899 20.7235H13.2971L13.0418 20.6683L12.7317 20.6131L12.4763 20.5579L12.221 20.4475L11.9656 20.337L11.7102 20.1898L11.4549 20.0241L10.9441 19.6008L26.3023 7.96893L26.5577 7.76648L26.8131 7.65605L27.0684 7.50881L27.3238 7.39838L27.5792 7.34316L27.8345 7.23273H28.9654L29.2208 7.34316L29.4761 7.39838L29.7315 7.50881L29.9869 7.65605L30.2422 7.76648L30.4976 7.96893L31.0448 8.33703ZM15.6319 23.153L30.9901 11.5763L31.2454 11.3738L31.4461 11.2634L31.7014 11.1162L31.9568 11.0057L32.2669 10.9505L32.5222 10.8401H33.5984L33.9085 10.9505L34.1638 11.0057L34.4192 11.1162L34.6746 11.2634L34.9299 11.3738L35.1853 11.5763L35.6595 11.8892L20.3013 23.5211L20.046 23.6683L19.8089 23.834L19.5535 23.9444L19.2981 24.0548L19.0428 24.11L18.7327 24.1652L18.4773 24.2205H17.9119L17.6565 24.1652L17.3464 24.11L17.0911 24.0548L16.8357 23.9444L16.5803 23.834L16.325 23.6683L16.0696 23.5211L15.6319 23.153ZM26.4847 4.89531L11.1265 16.472L10.8712 16.6192L10.6158 16.7665L10.3605 16.8769L10.1051 16.9873L9.84973 17.0978L9.53965 17.153L9.26605 17.2082H8.7006L8.44524 17.153L8.18988 17.0978L7.8798 16.9873L7.62443 16.8769L7.36907 16.7665L7.16843 16.6192L6.91307 16.472L6.40234 16.1039L21.7058 4.472L21.9429 4.32476L22.1983 4.17752L22.4537 4.06709L22.709 3.95666L22.9644 3.90144L23.2745 3.84623L23.5298 3.79102H24.0953L24.3506 3.84623L24.6607 3.90144L24.9161 3.95666L25.1715 4.06709L25.4268 4.17752L25.7187 4.32476L25.974 4.472L26.4847 4.89531Z" fill="#F58220"/>
<path fill-rule="evenodd" clip-rule="evenodd" d="M21.6328 1.1411L4.52356 13.7117C4.10403 14.0245 3.73923 14.4479 3.53859 14.8528C3.33795 15.2761 3.22851 15.7914 3.22851 16.3067V31.546C3.22851 32.0245 3.39267 32.3742 3.70275 32.6871C4.01283 33 4.43236 33.1656 4.83364 33.1656H32.7958C33.27 33.1656 33.6713 33.0184 33.9814 32.6871C34.2368 32.3742 34.4374 32.0061 34.4374 31.546V18.092C34.4374 16.9509 34.9116 15.9571 35.8419 15.2209L37.6477 13.8221V31.5644C37.6477 32.9264 37.1369 34.1227 36.2432 35.0061C35.3494 35.8896 34.1273 36.4601 32.7775 36.4601H4.8154C3.46563 36.4601 2.28002 35.8896 1.40449 35.0061C0.528964 34.1227 0 32.9264 0 31.5644V16.3252C0 15.2761 0.200642 14.2822 0.674885 13.3988C1.09441 12.5153 1.76929 11.7239 2.5901 11.0982L16.708 0.662577C18.003 -0.220859 19.6994 -0.220859 20.9397 0.662577L21.6328 1.1411Z" fill="#FAFAFA"/>
<path fill-rule="evenodd" clip-rule="evenodd" d="M211.189 28.347H214.807L212.998 18.4687L211.189 28.347ZM206.891 36.0444L211.466 14.1711H214.424L219 36.0444H216.169L215.148 30.528H210.743L209.721 36.0444H206.891ZM203.336 39.9786L203.102 36.0444H191.397V14.1497H194.419V33.8421H200.57V14.1497H203.592V33.8421H205.699V39.9572H203.336V39.9786ZM176.308 36.0658V14.1497H179.373V23.5362H184.927V14.1497H187.949V36.023H184.927V25.7171H179.373V36.023H176.308V36.0658ZM159.07 36.0658V33.7566C159.495 33.7566 159.857 33.7566 160.155 33.6924C160.517 33.6283 160.815 33.4572 161.07 33.1365C161.304 32.9013 161.56 32.4737 161.73 31.9178C161.964 31.3191 162.092 30.528 162.283 29.5444C162.411 28.5822 162.517 27.2993 162.645 25.7171L163.369 14.1497H172.903V36.0016H169.881V16.3734H165.965L165.476 25.6957C165.348 27.1497 165.242 28.4326 165.114 29.5658C164.922 30.6562 164.752 31.6184 164.454 32.4737C164.22 33.3289 163.858 33.9918 163.369 34.5263C162.943 35.0822 162.347 35.4885 161.687 35.7451C160.943 35.9803 160.091 36.0872 159.07 36.0444V36.0658ZM151.834 33.8635C152.621 33.8635 153.217 33.6924 153.643 33.3717C154.068 33.0082 154.366 32.5806 154.494 31.9819C154.622 31.3832 154.686 30.6563 154.686 29.8651V20.2007C154.686 19.4095 154.622 18.6826 154.494 18.148C154.366 17.5493 154.068 17.1217 153.643 16.7582C153.217 16.4589 152.621 16.3306 151.834 16.3306C151.046 16.3306 150.387 16.4589 149.961 16.7582C149.535 17.1217 149.301 17.5493 149.11 18.148C148.982 18.7039 148.939 19.4309 148.939 20.2007V29.8438C148.939 30.6349 149.003 31.3618 149.11 31.9605C149.301 32.5592 149.535 32.9868 149.961 33.3503C150.387 33.6711 151.046 33.8421 151.834 33.8421V33.8635ZM151.834 36.301C150.387 36.301 149.174 36.0016 148.344 35.403C147.428 34.847 146.833 34.0132 146.471 32.9868C146.045 31.8964 145.875 30.6135 145.875 29.2237V20.8635C145.875 19.4737 146.066 18.1908 146.471 17.1645C146.833 16.1382 147.492 15.347 148.344 14.7911C149.195 14.2352 150.387 14 151.834 14C153.281 14 154.43 14.2352 155.324 14.7911C156.175 15.347 156.771 16.1809 157.197 17.1645C157.559 18.1908 157.75 19.4737 157.75 20.8635V29.2237C157.75 30.6776 157.58 31.8964 157.197 32.9227C156.771 34.0132 156.175 34.8043 155.324 35.403C154.409 36.0016 153.281 36.301 151.834 36.301ZM137.894 36.301C136.383 36.301 135.17 35.9375 134.34 35.3388C133.489 34.676 132.893 33.7566 132.595 32.6661C132.233 31.5757 132.042 30.3569 132.042 29.0313V21.2697C132.042 19.8158 132.233 18.4901 132.595 17.3997C132.893 16.3092 133.51 15.4539 134.34 14.8553C135.191 14.2566 136.383 14 137.894 14C139.277 14 140.363 14.2352 141.15 14.727C141.938 15.2187 142.47 15.9457 142.832 16.8438C143.193 17.8059 143.385 18.8964 143.385 20.2434V21.9326H140.491V20.4145C140.491 19.6234 140.491 18.8964 140.363 18.2977C140.299 17.699 140.065 17.2072 139.703 16.8438C139.405 16.4803 138.788 16.352 137.958 16.352C137.128 16.352 136.447 16.523 136.085 16.9079C135.659 17.2714 135.425 17.7632 135.298 18.426C135.17 19.153 135.106 19.9441 135.106 20.7993V29.523C135.106 30.6135 135.234 31.4688 135.404 32.1316C135.532 32.7303 135.83 33.222 136.255 33.4572C136.681 33.7566 137.213 33.8849 137.937 33.8849C138.724 33.8849 139.32 33.7138 139.682 33.3503C140.044 32.9868 140.278 32.4309 140.342 31.8322C140.469 31.1694 140.469 30.4424 140.469 29.523V27.9408H143.364V29.523C143.364 30.8487 143.172 32.0674 142.874 33.0296C142.576 34.0559 141.959 34.847 141.193 35.4457C140.427 36.0016 139.341 36.301 137.894 36.301ZM121.592 40L121.358 36.0658H109.653V14.1497H112.675V33.8421H118.825V14.1497H121.911V33.8421H123.954V39.9572H121.592V40ZM98.7351 36.0872V14.1497H107.184V16.3947H101.757V23.6003H106.163V25.7813H101.757V33.8421H107.184V36.023H98.7351V36.0872ZM87.6259 23.301H89.4349C90.2862 23.301 91.0097 23.1727 91.4779 22.9375C91.9674 22.7023 92.2654 22.2747 92.4356 21.7188C92.6697 21.227 92.7336 20.5 92.7336 19.6661C92.7336 18.6398 92.6059 17.9128 92.3079 17.4852C92.01 16.9934 91.5205 16.7582 90.8608 16.6299C90.2649 16.5016 89.4136 16.4589 88.3282 16.4589H87.6046V23.301H87.6259ZM87.6259 33.9062H89.669C91.0523 33.9062 91.9674 33.5428 92.3931 32.9441C92.8826 32.2812 93.1167 31.2549 93.1167 29.8438C93.1167 28.9457 92.989 28.1546 92.7549 27.5345C92.5208 26.8717 92.0951 26.3799 91.6056 26.0806C91.0523 25.7812 90.3287 25.5888 89.4349 25.5888H87.6259V33.9062ZM84.6251 36.1086V14.1497H89.6264C90.5841 14.1497 91.4354 14.2138 92.159 14.449C92.8826 14.6842 93.4785 14.9836 93.9679 15.4112C94.4574 15.903 94.8831 16.4375 95.1172 17.1645C95.3513 17.8273 95.479 18.6184 95.479 19.5806C95.479 20.4786 95.3513 21.2056 95.1172 21.8898C94.9256 22.5526 94.5638 23.1086 94.0318 23.472C93.6062 23.8355 93.0103 24.0707 92.2867 24.199C93.2018 24.3701 93.9041 24.7549 94.3936 25.1612C94.9895 25.653 95.4151 26.2516 95.6705 27.1069C95.9685 27.8339 96.0961 28.7533 96.0961 29.7796C96.0961 30.6776 95.9685 31.5329 95.7344 32.324C95.5641 33.1151 95.181 33.778 94.7767 34.3125C94.2233 34.8043 93.6274 35.2105 92.9677 35.5313C92.2441 35.8306 91.3928 36.023 90.4351 36.023H84.6251V36.1086ZM75.7505 33.9276C76.5379 33.9276 77.1338 33.7566 77.5595 33.4359C77.9851 33.0724 78.2192 32.6447 78.4108 32.0461C78.5385 31.4474 78.6023 30.7204 78.6023 29.9293V20.2007C78.6023 19.4095 78.5385 18.6826 78.4108 18.148C78.2405 17.5493 77.9851 17.1217 77.5595 16.7582C77.1338 16.4589 76.5379 16.3306 75.7505 16.3306C74.8992 16.3306 74.3033 16.4589 73.8777 16.7582C73.452 17.1217 73.2179 17.5493 73.0264 18.148C72.8987 18.7039 72.8349 19.4309 72.8349 20.2007V29.8438C72.8349 30.6349 72.8987 31.3618 73.0264 31.9605C73.2179 32.5592 73.452 32.9868 73.8777 33.3503C74.3033 33.6711 74.8992 33.8421 75.7505 33.8421V33.9276ZM75.7505 36.3651C74.2395 36.3651 73.0903 36.0658 72.2603 35.4671C71.3451 34.9112 70.7492 34.0773 70.3236 33.051C69.9618 31.9605 69.7915 30.6776 69.7915 29.2878V20.9276C69.7915 19.5378 69.9618 18.2549 70.3874 17.2286C70.7492 16.2023 71.3451 15.4112 72.2603 14.8553C73.1115 14.2993 74.2395 14.0641 75.7505 14.0641C77.2615 14.0641 78.3469 14.2993 79.2408 14.8553C80.0921 15.4112 80.6879 16.2451 81.0497 17.2286C81.4754 18.2549 81.6456 19.5378 81.6456 20.9276V29.2878C81.6456 30.7418 81.4541 31.9605 81.0497 32.9868C80.6879 34.0773 80.0921 34.8684 79.2408 35.4671C78.3469 36.0658 77.1977 36.3651 75.7505 36.3651ZM53 36.1299V33.8207C53.3618 33.8207 53.7236 33.8207 54.0215 33.7566C54.3833 33.6924 54.6813 33.5214 54.9367 33.2007C55.1708 32.9655 55.4262 32.5378 55.5964 31.9819C55.8305 31.3832 56.0221 30.5921 56.1497 29.6086C56.2774 28.6464 56.3838 27.3635 56.5115 25.7813L57.2351 14.2138H66.7695V36.0016H63.7474V16.3734H59.8315L59.3421 25.6957C59.2144 27.1497 59.1079 28.4326 58.9803 29.5658C58.8526 30.6562 58.6185 31.6184 58.3844 32.4737C58.0864 33.3289 57.7246 33.9918 57.2351 34.5263C56.8095 35.0822 56.2136 35.4885 55.5538 35.7451C54.809 35.9803 53.979 36.0872 53 36.0444V36.1299Z" fill="#FAFAFA"/>
</svg>
