<svg width="301" height="63" viewBox="0 0 301 63" fill="none" xmlns="http://www.w3.org/2000/svg">
<g clip-path="url(#clip0_4565_1366)">
<path d="M47.3018 12.456L24.2312 29.917L23.8462 30.1645L23.4612 30.3845L23.0763 30.5495L22.6913 30.7145L22.3063 30.797L21.8389 30.8795L21.4539 30.962H20.5465L20.1615 30.8795L19.694 30.797L19.3091 30.7145L18.9241 30.5495L18.5391 30.3845L18.1542 30.1645L17.7692 29.917L16.9993 29.2846L40.1523 11.906L40.5373 11.6036L40.9223 11.4386L41.3072 11.2186L41.6922 11.0536L42.0772 10.9711L42.4622 10.8061H44.167L44.552 10.9711L44.9369 11.0536L45.3219 11.2186L45.7069 11.4386L46.0918 11.6036L46.4768 11.906L47.3018 12.456ZM24.0662 34.5917L47.2193 17.2956L47.6042 16.9931L47.9067 16.8281L48.2917 16.6082L48.6766 16.4432L49.1441 16.3607L49.5291 16.1957H51.1514L51.6189 16.3607L52.0039 16.4432L52.3888 16.6082L52.7738 16.8281L53.1588 16.9931L53.5437 17.2956L54.2587 17.7631L31.1056 35.1416L30.7206 35.3616L30.3632 35.6091L29.9782 35.7741L29.5932 35.939L29.2083 36.0215L28.7408 36.104L28.3558 36.1865H27.5034L27.1184 36.104L26.651 36.0215L26.266 35.939L25.881 35.7741L25.4961 35.6091L25.1111 35.3616L24.7261 35.1416L24.0662 34.5917ZM40.4273 7.31393L17.2743 24.61L16.8893 24.83L16.5043 25.0499L16.1193 25.2149L15.7344 25.3799L15.3494 25.5449L14.8819 25.6274L14.4695 25.7099H13.6171L13.2321 25.6274L12.8471 25.5449L12.3797 25.3799L11.9947 25.2149L11.6097 25.0499L11.3072 24.83L10.9223 24.61L10.1523 24.06L33.2229 6.68148L33.5804 6.4615L33.9654 6.24151L34.3503 6.07653L34.7353 5.91154L35.1203 5.82905L35.5877 5.74656L35.9727 5.66406H36.8251L37.2101 5.74656L37.6776 5.82905L38.0625 5.91154L38.4475 6.07653L38.8325 6.24151L39.2724 6.4615L39.6574 6.68148L40.4273 7.31393Z" fill="#8C8C8C"/>
<path fill-rule="evenodd" clip-rule="evenodd" d="M33.1123 1.70486L7.31943 20.4858C6.68698 20.9533 6.13703 21.5857 5.83456 22.1907C5.53208 22.8231 5.36709 23.593 5.36709 24.363V47.1311C5.36709 47.846 5.61457 48.3685 6.08203 48.8359C6.5495 49.3034 7.18194 49.5509 7.78689 49.5509H49.9409C50.6558 49.5509 51.2608 49.3309 51.7282 48.8359C52.1132 48.3685 52.4157 47.8185 52.4157 47.1311V27.0302C52.4157 25.3254 53.1306 23.8405 54.533 22.7406L57.2553 20.6508V47.1586C57.2553 49.1934 56.4853 50.9808 55.138 52.3006C53.7906 53.6205 51.9482 54.473 49.9134 54.473H7.7594C5.72457 54.473 3.93721 53.6205 2.61732 52.3006C1.29743 50.9808 0.5 49.1934 0.5 47.1586V24.3905C0.5 22.8231 0.802475 21.3382 1.51742 20.0183C2.14986 18.6984 3.16728 17.516 4.40467 16.5811L25.6879 0.989917C27.6402 -0.329973 30.1975 -0.329973 32.0674 0.989917L33.1123 1.70486Z" fill="#BABABA"/>
<path fill-rule="evenodd" clip-rule="evenodd" d="M290.406 31.6502H295.081L292.743 18.9462L290.406 31.6502ZM284.852 41.5494L290.764 13.4192H294.586L300.498 41.5494H296.841L295.521 34.4549H289.829L288.509 41.5494H284.852ZM280.259 46.6089L279.957 41.5494H264.833V13.3917H268.738V38.7171H276.685V13.3917H280.589V38.7171H283.312V46.5814H280.259V46.6089ZM245.337 41.5769V13.3917H249.297V25.4632H256.474V13.3917H260.379V41.5219H256.474V28.268H249.297V41.5219H245.337V41.5769ZM223.064 41.5769V38.6071C223.614 38.6071 224.082 38.6071 224.467 38.5246C224.934 38.4421 225.319 38.2221 225.649 37.8097C225.951 37.5072 226.281 36.9572 226.501 36.2423C226.804 35.4724 226.969 34.4549 227.216 33.1901C227.381 31.9527 227.519 30.3028 227.684 28.268L228.619 13.3917H240.938V41.4944H237.033V16.2515H231.973L231.341 28.2405C231.176 30.1103 231.039 31.7602 230.874 33.2176C230.626 34.6199 230.406 35.8573 230.021 36.9572C229.719 38.0571 229.251 38.9096 228.619 39.597C228.069 40.312 227.299 40.8344 226.446 41.1644C225.484 41.4669 224.384 41.6044 223.064 41.5494V41.5769ZM213.715 38.7446C214.732 38.7446 215.502 38.5246 216.052 38.1121C216.602 37.6447 216.987 37.0947 217.152 36.3248C217.317 35.5549 217.4 34.6199 217.4 33.6025V21.1736C217.4 20.1561 217.317 19.2212 217.152 18.5338C216.987 17.7638 216.602 17.2139 216.052 16.7464C215.502 16.3615 214.732 16.1965 213.715 16.1965C212.698 16.1965 211.845 16.3615 211.295 16.7464C210.745 17.2139 210.443 17.7638 210.195 18.5338C210.03 19.2487 209.975 20.1836 209.975 21.1736V33.575C209.975 34.5924 210.058 35.5274 210.195 36.2973C210.443 37.0672 210.745 37.6172 211.295 38.0846C211.845 38.4971 212.698 38.7171 213.715 38.7171V38.7446ZM213.715 41.8793C211.845 41.8793 210.278 41.4944 209.205 40.7244C208.023 40.0095 207.253 38.9371 206.786 37.6172C206.236 36.2148 206.016 34.5649 206.016 32.7776V22.026C206.016 20.2386 206.263 18.5888 206.786 17.2689C207.253 15.949 208.105 14.9316 209.205 14.2166C210.305 13.5017 211.845 13.1992 213.715 13.1992C215.585 13.1992 217.07 13.5017 218.225 14.2166C219.325 14.9316 220.094 16.004 220.644 17.2689C221.112 18.5888 221.359 20.2386 221.359 22.026V32.7776C221.359 34.6474 221.139 36.2148 220.644 37.5347C220.094 38.9371 219.325 39.9545 218.225 40.7244C217.042 41.4944 215.585 41.8793 213.715 41.8793ZM195.704 41.8793C193.752 41.8793 192.184 41.4119 191.112 40.6419C190.012 39.7895 189.242 38.6071 188.857 37.2047C188.39 35.8023 188.142 34.235 188.142 32.5301V22.5484C188.142 20.6786 188.39 18.9737 188.857 17.5714C189.242 16.169 190.039 15.0691 191.112 14.2991C192.212 13.5292 193.752 13.1992 195.704 13.1992C197.491 13.1992 198.894 13.5017 199.911 14.1341C200.929 14.7666 201.616 15.7015 202.083 16.8564C202.551 18.0938 202.798 19.4962 202.798 21.2285V23.4009H199.059V21.4485C199.059 20.4311 199.059 19.4962 198.894 18.7263C198.811 17.9563 198.509 17.3239 198.041 16.8564C197.656 16.389 196.859 16.224 195.786 16.224C194.714 16.224 193.834 16.4439 193.367 16.9389C192.817 17.4064 192.514 18.0388 192.349 18.8912C192.184 19.8262 192.102 20.8436 192.102 21.9435V33.1626C192.102 34.5649 192.267 35.6648 192.487 36.5173C192.652 37.2872 193.037 37.9197 193.587 38.2221C194.137 38.6071 194.824 38.7721 195.759 38.7721C196.776 38.7721 197.546 38.5521 198.014 38.0846C198.481 37.6172 198.784 36.9022 198.866 36.1323C199.031 35.2799 199.031 34.345 199.031 33.1626V31.1277H202.771V33.1626C202.771 34.8674 202.523 36.4348 202.138 37.6722C201.753 38.9921 200.956 40.0095 199.966 40.7794C198.976 41.4944 197.574 41.8793 195.704 41.8793ZM174.641 46.6364L174.338 41.5769H159.215V13.3917H163.119V38.7171H171.066V13.3917H175.053V38.7171H177.693V46.5814H174.641V46.6364ZM145.108 41.6044V13.3917H156.025V16.279H149.013V25.5457H154.705V28.3505H149.013V38.7171H156.025V41.5219H145.108V41.6044ZM130.754 25.1607H133.092C134.192 25.1607 135.127 24.9957 135.731 24.6933C136.364 24.3908 136.749 23.8408 136.969 23.1259C137.271 22.4934 137.354 21.5585 137.354 20.4861C137.354 19.1662 137.189 18.2313 136.804 17.6813C136.419 17.0489 135.786 16.7464 134.934 16.5814C134.164 16.4165 133.064 16.3615 131.662 16.3615H130.727V25.1607H130.754ZM130.754 38.7996H133.394C135.182 38.7996 136.364 38.3321 136.914 37.5622C137.546 36.7098 137.849 35.3899 137.849 33.575C137.849 32.4201 137.684 31.4027 137.381 30.6053C137.079 29.7528 136.529 29.1204 135.896 28.7354C135.182 28.3505 134.247 28.103 133.092 28.103H130.754V38.7996ZM126.877 41.6318V13.3917H133.339C134.577 13.3917 135.676 13.4742 136.611 13.7767C137.546 14.0791 138.316 14.4641 138.949 15.0141C139.581 15.6465 140.131 16.334 140.434 17.2689C140.736 18.1213 140.901 19.1387 140.901 20.3761C140.901 21.531 140.736 22.4659 140.434 23.3459C140.186 24.1983 139.719 24.9132 139.031 25.3807C138.481 25.8482 137.711 26.1506 136.776 26.3156C137.959 26.5356 138.866 27.0306 139.499 27.553C140.269 28.1855 140.819 28.9554 141.149 30.0553C141.534 30.9902 141.698 32.1726 141.698 33.4925C141.698 34.6474 141.534 35.7473 141.231 36.7648C141.011 37.7822 140.516 38.6346 139.994 39.322C139.279 39.9545 138.509 40.4769 137.656 40.8894C136.721 41.2744 135.621 41.5219 134.384 41.5219H126.877V41.6318ZM115.411 38.8271C116.428 38.8271 117.198 38.6071 117.748 38.1946C118.298 37.7272 118.6 37.1772 118.848 36.4073C119.013 35.6373 119.095 34.7024 119.095 33.685V21.1736C119.095 20.1561 119.013 19.2212 118.848 18.5338C118.628 17.7638 118.298 17.2139 117.748 16.7464C117.198 16.3615 116.428 16.1965 115.411 16.1965C114.311 16.1965 113.541 16.3615 112.991 16.7464C112.441 17.2139 112.138 17.7638 111.891 18.5338C111.726 19.2487 111.643 20.1836 111.643 21.1736V33.575C111.643 34.5924 111.726 35.5274 111.891 36.2973C112.138 37.0672 112.441 37.6172 112.991 38.0846C113.541 38.4971 114.311 38.7171 115.411 38.7171V38.8271ZM115.411 41.9618C113.458 41.9618 111.973 41.5769 110.901 40.8069C109.719 40.092 108.949 39.0196 108.399 37.6997C107.931 36.2973 107.711 34.6474 107.711 32.8601V22.1085C107.711 20.3211 107.931 18.6713 108.481 17.3514C108.949 16.0315 109.719 15.0141 110.901 14.2991C112.001 13.5842 113.458 13.2817 115.411 13.2817C117.363 13.2817 118.765 13.5842 119.92 14.2991C121.02 15.0141 121.79 16.0865 122.258 17.3514C122.808 18.6713 123.028 20.3211 123.028 22.1085V32.8601C123.028 34.7299 122.78 36.2973 122.258 37.6172C121.79 39.0196 121.02 40.037 119.92 40.8069C118.765 41.5769 117.281 41.9618 115.411 41.9618ZM86.0156 41.6593V38.6896C86.4831 38.6896 86.9505 38.6896 87.3355 38.6071C87.803 38.5246 88.1879 38.3046 88.5179 37.8922C88.8204 37.5897 89.1504 37.0397 89.3703 36.3248C89.6728 35.5549 89.9203 34.5374 90.0853 33.2725C90.2503 32.0352 90.3878 30.3853 90.5527 28.3505L91.4877 13.4742H103.807V41.4944H99.902V16.2515H94.8424L94.2099 28.2405C94.045 30.1103 93.9075 31.7602 93.7425 33.2176C93.5775 34.6199 93.275 35.8573 92.9725 36.9572C92.5876 38.0571 92.1201 38.9096 91.4877 39.597C90.9377 40.312 90.1678 40.8344 89.3153 41.1644C88.3529 41.4669 87.2805 41.6044 86.0156 41.5494V41.6593Z" fill="#BABABA"/>
<path fill-rule="evenodd" clip-rule="evenodd" d="M297.036 58.9267H298.219L297.586 55.6545L297.036 58.9267ZM295.634 61.4015L297.119 54.2246H298.054L299.621 61.4015H298.686L298.384 59.6967H296.899L296.596 61.4015H295.634ZM290.244 57.1944H290.877C291.097 57.1944 291.344 57.1944 291.509 57.1119C291.674 57.0294 291.812 56.8919 291.812 56.7269C291.894 56.5619 291.977 56.3419 291.977 56.012C291.977 55.7095 291.894 55.462 291.812 55.3245C291.647 55.1595 291.509 55.077 291.344 55.022H290.272V57.1944H290.244ZM290.244 60.7141H290.932C291.317 60.7141 291.647 60.6316 291.784 60.4116C291.949 60.2466 292.004 59.8616 292.004 59.3942C292.004 59.1467 291.922 58.8442 291.839 58.6792C291.757 58.3768 291.674 58.2118 291.537 58.1293C291.289 58.0468 291.069 57.9643 290.822 57.9643H290.189V60.7141H290.244ZM289.227 61.4015V54.2246H290.877C291.179 54.2246 291.509 54.3071 291.729 54.3896C291.949 54.4721 292.197 54.5546 292.362 54.6921C292.527 54.8571 292.582 54.9945 292.664 55.242C292.747 55.462 292.829 55.7095 292.829 56.012C292.829 56.3144 292.747 56.5619 292.664 56.7819C292.582 57.0294 292.499 57.1669 292.362 57.2494C292.197 57.4143 292.059 57.4693 291.812 57.4693C292.032 57.5518 292.279 57.7168 292.444 57.8543C292.692 58.0193 292.747 58.1568 292.829 58.4868C292.994 58.7342 292.994 59.0367 292.994 59.3392C292.994 59.6417 292.994 59.9716 292.912 60.1916C292.829 60.4116 292.692 60.6591 292.609 60.8241C292.444 61.044 292.224 61.1265 291.977 61.2915C291.757 61.374 291.509 61.374 291.207 61.374H289.227V61.4015ZM284.332 61.429V55.0495H283.095V54.2796H286.45V55.0495H285.267V61.429H284.332ZM278.64 61.594C278.173 61.594 277.788 61.429 277.458 61.209C277.238 61.044 276.991 60.7416 276.908 60.4391C276.743 60.0541 276.743 59.6692 276.743 59.2017V56.6444C276.743 56.1769 276.743 55.7095 276.908 55.407C276.991 55.022 277.211 54.7746 277.458 54.5546C277.76 54.3896 278.173 54.3346 278.64 54.3346C279.108 54.3346 279.41 54.4171 279.74 54.5546C279.988 54.7196 280.125 54.9396 280.29 55.2695C280.373 55.572 280.455 55.902 280.455 56.3694V56.9194H279.52V55.737C279.438 55.517 279.355 55.352 279.3 55.2695C279.135 55.1045 278.998 55.022 278.668 55.022C278.448 55.022 278.2 55.1045 278.035 55.2695C277.953 55.352 277.87 55.4895 277.815 55.737C277.815 55.957 277.733 56.2044 277.733 56.5069V59.3942C277.733 59.7791 277.815 60.0266 277.898 60.2466C277.898 60.4666 278.063 60.6316 278.145 60.7141C278.31 60.7966 278.448 60.7966 278.695 60.7966C278.998 60.7966 279.163 60.7966 279.328 60.6316C279.41 60.5491 279.493 60.4116 279.548 60.1641V58.9267H280.483V59.3942C280.483 59.8616 280.4 60.2466 280.318 60.5491C280.235 60.8516 280.015 61.1815 279.768 61.319C279.493 61.429 279.108 61.594 278.64 61.594ZM271.381 60.7416H271.684C271.986 60.7416 272.233 60.7416 272.453 60.6591C272.618 60.5766 272.756 60.4941 272.838 60.2741C272.921 60.0541 273.003 59.8066 273.003 59.4217C273.003 58.8717 272.921 58.5693 272.701 58.2393C272.536 58.0743 272.233 57.9368 271.684 57.9368H271.381V60.7416ZM270.364 61.429V54.2521H271.381V57.2219H271.684C272.151 57.2219 272.618 57.3044 272.921 57.4418C273.223 57.5243 273.553 57.7443 273.691 58.0743C273.856 58.3218 273.911 58.8442 273.911 59.3942C273.911 59.7791 273.828 60.0816 273.746 60.3291C273.663 60.5491 273.526 60.7966 273.361 60.9616C273.196 61.1265 272.976 61.264 272.646 61.3465C272.343 61.429 272.013 61.429 271.629 61.429H270.364ZM262.664 61.429V60.7141H262.967C263.132 60.6316 263.214 60.6316 263.269 60.5491C263.352 60.3841 263.434 60.3291 263.489 60.0816C263.572 59.9166 263.572 59.6967 263.654 59.3117C263.737 59.0092 263.737 58.5967 263.819 58.0743L264.039 54.2521H267.146V61.429H266.129V55.0495H264.892L264.672 58.0743C264.672 58.6242 264.672 59.0092 264.589 59.3942C264.507 59.6967 264.507 60.0266 264.369 60.3291C264.287 60.5491 264.204 60.7966 264.067 61.044C263.902 61.209 263.682 61.2915 263.517 61.3465C263.269 61.429 262.967 61.5115 262.664 61.429ZM257.522 61.429V54.2521H260.244V55.022H258.457V57.3594H259.942V58.0468H258.457V60.6866H260.244V61.4015H257.522V61.429ZM252.518 61.4565V55.077H251.28V54.3071H254.635V55.077H253.535V61.4565H252.518ZM244.818 61.4565V54.2796H245.671V59.2842L247.788 54.2796H248.475V61.4565H247.623V56.3969L245.588 61.4565H244.818ZM239.731 60.7691C240.034 60.7691 240.199 60.7691 240.364 60.6041C240.529 60.5216 240.611 60.3841 240.666 60.2191V55.5995C240.584 55.4345 240.501 55.297 240.364 55.132C240.199 55.0495 240.061 54.967 239.731 54.967C239.484 54.967 239.264 55.0495 239.181 55.132C239.016 55.297 238.961 55.4345 238.879 55.5995C238.879 55.7645 238.796 55.9845 238.796 56.3144V59.5042C238.796 59.7242 238.879 59.9716 238.879 60.2191C238.961 60.3841 239.044 60.5216 239.181 60.6041C239.264 60.7691 239.511 60.7691 239.731 60.7691ZM239.731 61.6215C239.264 61.6215 238.879 61.4565 238.631 61.319C238.329 61.0715 238.081 60.8516 237.999 60.5491C237.834 60.1641 237.779 59.7791 237.779 59.3117V56.5069C237.779 56.0395 237.861 55.6545 237.999 55.352C238.081 55.0495 238.301 54.7196 238.631 54.5821C238.879 54.4171 239.264 54.3621 239.731 54.3621C240.281 54.3621 240.584 54.4446 240.914 54.5821C241.216 54.7471 241.381 55.0495 241.546 55.352C241.711 55.6545 241.711 56.067 241.711 56.5069V59.3117C241.711 59.7791 241.711 60.1641 241.546 60.5491C241.381 60.8516 241.244 61.099 240.914 61.319C240.611 61.4565 240.281 61.6215 239.731 61.6215ZM232.637 57.4143H233.022C233.324 57.4143 233.572 57.4143 233.737 57.3319C233.902 57.2494 234.039 57.1119 234.122 56.9469C234.122 56.7819 234.204 56.5619 234.204 56.3144C234.204 55.9295 234.204 55.682 234.122 55.5445C234.039 55.3245 233.957 55.242 233.819 55.1595C233.654 55.077 233.434 54.9945 233.049 54.9945H232.664V57.4143H232.637ZM231.647 61.4565V54.2796H233.352C233.819 54.2796 234.122 54.3621 234.452 54.4996C234.672 54.6646 234.837 54.8846 235.002 55.2145C235.084 55.517 235.167 55.847 235.167 56.3144C235.167 56.6169 235.084 56.9469 234.947 57.2494C234.864 57.5518 234.644 57.7168 234.397 57.8818C234.149 58.0468 233.764 58.1018 233.462 58.1018H232.692V61.4565H231.647ZM226.642 61.4565V55.077H225.46V54.3071H228.815V55.077H227.632V61.4565H226.642ZM221.033 61.6215C220.483 61.6215 220.098 61.4565 219.85 61.2365C219.548 61.0715 219.383 60.7691 219.218 60.4666C219.135 60.0816 219.053 59.6967 219.053 59.2292V56.6719C219.053 56.2044 219.135 55.737 219.218 55.4345C219.383 55.0495 219.52 54.8021 219.85 54.5821C220.098 54.4171 220.483 54.3621 221.033 54.3621C221.418 54.3621 221.803 54.4446 222.05 54.5821C222.27 54.7471 222.518 54.9671 222.6 55.297C222.765 55.5995 222.848 55.9295 222.848 56.3969V56.9469H221.83V55.7645C221.83 55.5445 221.748 55.3795 221.61 55.297C221.528 55.132 221.308 55.0495 221.06 55.0495C220.758 55.0495 220.51 55.132 220.428 55.297C220.263 55.3795 220.18 55.517 220.18 55.7645C220.098 55.9845 220.098 56.2319 220.098 56.5344V59.4217C220.098 59.8066 220.098 60.0541 220.18 60.2741C220.263 60.4941 220.345 60.6591 220.483 60.7416C220.565 60.8241 220.785 60.8241 221.033 60.8241C221.253 60.8241 221.5 60.8241 221.583 60.6591C221.748 60.5766 221.803 60.4391 221.803 60.1916V58.9542H222.82V59.4217C222.82 59.8891 222.738 60.2741 222.655 60.5766C222.49 60.8791 222.353 61.209 222.105 61.3465C221.803 61.4565 221.5 61.6215 221.033 61.6215ZM210.116 60.7691C210.419 60.7691 210.584 60.7691 210.749 60.6041C210.914 60.5216 210.969 60.3841 211.051 60.2191C211.051 59.9716 211.134 59.7516 211.134 59.5042V56.3144C211.134 56.012 211.051 55.7645 211.051 55.5995C210.969 55.4345 210.886 55.297 210.749 55.132C210.584 55.0495 210.446 54.967 210.116 54.967C209.896 54.967 209.731 55.0495 209.566 55.132C209.401 55.297 209.319 55.4345 209.264 55.5995C209.264 55.7645 209.181 55.9845 209.181 56.3144V59.5042C209.181 59.7242 209.264 59.9716 209.264 60.2191C209.346 60.3841 209.429 60.5216 209.566 60.6041C209.731 60.7691 209.896 60.7691 210.116 60.7691ZM210.116 61.6215C209.649 61.6215 209.264 61.4565 209.016 61.319C208.714 61.0715 208.466 60.8516 208.384 60.5491C208.219 60.1641 208.136 59.7791 208.136 59.3117V56.5069C208.136 56.0395 208.219 55.6545 208.384 55.352C208.549 55.0495 208.686 54.7196 209.016 54.5821C209.264 54.4171 209.649 54.3621 210.116 54.3621C210.666 54.3621 210.969 54.4446 211.299 54.5821C211.601 54.7471 211.766 55.0495 211.931 55.352C212.096 55.6545 212.096 56.067 212.096 56.5069V59.3117C212.096 59.7791 212.096 60.1641 211.931 60.5491C211.766 60.8516 211.629 61.099 211.299 61.319C210.969 61.4565 210.666 61.6215 210.116 61.6215ZM202.802 61.4565V54.2796H205.524V55.0495H203.819V61.429H202.802V61.4565ZM197.797 60.7966C198.045 60.7966 198.265 60.7966 198.347 60.6316C198.512 60.5491 198.595 60.4116 198.65 60.2466C198.65 59.9991 198.732 59.7791 198.732 59.5317V56.3419C198.732 56.0395 198.65 55.792 198.65 55.627C198.567 55.462 198.485 55.3245 198.347 55.1595C198.265 55.077 198.045 54.9945 197.797 54.9945C197.495 54.9945 197.33 55.077 197.165 55.1595C197 55.3245 196.917 55.462 196.862 55.627V60.2466C196.945 60.4116 197.027 60.5491 197.165 60.6316C197.33 60.7966 197.495 60.7966 197.797 60.7966ZM197.797 61.649C197.33 61.649 196.945 61.484 196.642 61.3465C196.34 61.099 196.175 60.8791 196.01 60.5766C195.927 60.1916 195.845 59.8066 195.845 59.3392V56.5344C195.845 56.067 195.927 55.682 196.01 55.3795C196.175 55.077 196.312 54.7471 196.642 54.6096C196.945 54.4446 197.33 54.3896 197.797 54.3896C198.265 54.3896 198.65 54.4721 198.897 54.6096C199.2 54.7746 199.447 55.077 199.53 55.3795C199.694 55.682 199.749 56.0945 199.749 56.5344V59.3392C199.749 59.8066 199.667 60.1916 199.53 60.5766C199.447 60.8791 199.227 61.1265 198.897 61.3465C198.65 61.484 198.265 61.649 197.797 61.649ZM188.833 61.484V54.3071H189.85V57.4143H191.638V54.3071H192.655V61.484H191.638V58.1293H189.85V61.484H188.833ZM184.626 61.484V58.1293C184.241 58.2118 183.856 58.2943 183.526 58.2943C183.141 58.2943 182.838 58.2118 182.508 58.1293C182.288 57.9643 182.041 57.8268 181.958 57.5793C181.793 57.3594 181.739 57.0294 181.739 56.6444V54.3071H182.756V56.6444C182.756 56.8644 182.756 57.0294 182.838 57.1944C182.921 57.3593 183.003 57.4418 183.141 57.4968C183.306 57.5793 183.526 57.6618 183.773 57.6618C183.856 57.6618 183.993 57.6618 184.158 57.5793C184.323 57.5793 184.461 57.5793 184.626 57.4968V54.3071H185.561V61.484H184.626ZM176.211 61.484V54.3071H178.934V55.077H177.146V57.4143H178.631V58.1018H177.146V60.7416H178.934V61.4565H176.211V61.484ZM169.117 61.5115V54.3346H170.134V57.4418H171.922V54.3346H172.939V61.5115H171.922V58.1568H170.134V61.5115H169.117ZM161.418 61.5115V60.7966H161.72C161.885 60.7141 161.968 60.7141 162.023 60.6316C162.105 60.4666 162.188 60.4116 162.243 60.1641C162.325 59.9991 162.325 59.7791 162.408 59.3942C162.408 59.0917 162.49 58.6792 162.49 58.1568L162.71 54.3346H165.9V61.5115H164.882V55.132H163.563L163.398 58.1568C163.398 58.7067 163.315 59.0917 163.315 59.4767C163.233 59.7791 163.15 60.1091 163.068 60.4116C162.985 60.6316 162.848 60.8791 162.765 61.1265C162.6 61.2915 162.38 61.374 162.133 61.429C161.94 61.5115 161.72 61.594 161.418 61.5115ZM156.881 60.8241C157.101 60.8241 157.348 60.8241 157.431 60.6591C157.596 60.5766 157.678 60.4391 157.733 60.2741C157.815 60.0266 157.815 59.8066 157.815 59.5592V56.3694C157.815 56.067 157.815 55.8195 157.733 55.6545C157.651 55.4895 157.568 55.352 157.431 55.187C157.348 55.1045 157.128 55.022 156.881 55.022C156.578 55.022 156.413 55.1045 156.248 55.187C156.111 55.352 156.028 55.517 156.028 55.682C155.946 55.847 155.946 56.067 155.946 56.3969V59.5867C155.946 59.8066 155.946 60.0541 156.028 60.3016C156.028 60.4666 156.111 60.6041 156.276 60.6866C156.413 60.8241 156.578 60.8241 156.881 60.8241ZM156.881 61.6765C156.413 61.6765 156.028 61.5115 155.698 61.374C155.396 61.1265 155.231 60.9066 155.066 60.6041C154.983 60.2191 154.901 59.8341 154.901 59.3667V56.5619C154.901 56.0945 154.983 55.7095 155.066 55.407C155.231 55.1045 155.368 54.7746 155.698 54.6371C156.001 54.4721 156.413 54.4171 156.881 54.4171C157.348 54.4171 157.733 54.4996 157.98 54.6371C158.283 54.8021 158.53 55.1045 158.613 55.407C158.778 55.7095 158.86 56.122 158.86 56.5619V59.3667C158.86 59.8341 158.778 60.2191 158.613 60.6041C158.53 60.9066 158.31 61.154 157.98 61.374C157.733 61.5115 157.348 61.6765 156.881 61.6765ZM150.171 61.6765C149.704 61.6765 149.319 61.5115 148.989 61.2915C148.686 61.1265 148.521 60.8241 148.439 60.5216C148.274 60.1366 148.274 59.7516 148.274 59.2842V56.7269C148.274 56.2594 148.274 55.792 148.439 55.4895C148.521 55.1045 148.686 54.8571 148.989 54.6371C149.291 54.4721 149.704 54.4171 150.171 54.4171C150.639 54.4171 150.941 54.4996 151.271 54.6371C151.519 54.8021 151.656 55.022 151.821 55.352C151.903 55.6545 151.986 55.9845 151.986 56.4519V57.0019H151.051V56.5344C151.051 56.2319 151.051 55.9845 150.969 55.8195C150.969 55.5995 150.886 55.4345 150.804 55.352C150.639 55.187 150.501 55.1045 150.171 55.1045C149.951 55.1045 149.704 55.187 149.539 55.352C149.456 55.4345 149.374 55.572 149.291 55.8195C149.291 56.0395 149.209 56.2869 149.209 56.5894V59.4767C149.209 59.8616 149.291 60.1091 149.291 60.3291C149.374 60.5491 149.456 60.7141 149.594 60.7966C149.759 60.8791 149.896 60.8791 150.144 60.8791C150.446 60.8791 150.611 60.8791 150.776 60.7141C150.859 60.6316 150.941 60.4941 150.941 60.2466C151.024 60.0266 151.024 59.7791 151.024 59.4767V59.0092H151.958V59.4767C151.958 59.9441 151.876 60.3291 151.793 60.6316C151.711 60.9341 151.491 61.264 151.244 61.4015C151.024 61.5115 150.639 61.6765 150.171 61.6765ZM140.134 61.5115V54.3346H141.152V61.5115H140.134ZM136.862 60.8241H137.165C137.467 60.8241 137.715 60.8241 137.935 60.7416C138.1 60.6591 138.237 60.5766 138.32 60.3566C138.402 60.1366 138.485 59.8891 138.485 59.5042C138.485 58.9542 138.402 58.6517 138.182 58.3218C138.017 58.1568 137.632 58.0193 137.165 58.0193H136.862V60.8241ZM135.845 61.5115V54.3346H136.862V57.3044H137.165C137.632 57.3044 138.1 57.3868 138.402 57.5243C138.705 57.6068 138.952 57.8268 139.172 58.1568C139.337 58.4043 139.42 58.9267 139.42 59.4767C139.42 59.8616 139.337 60.1641 139.255 60.4116C139.172 60.6316 139.007 60.8791 138.87 61.044C138.705 61.209 138.485 61.3465 138.155 61.429C137.852 61.5115 137.522 61.5115 137.137 61.5115H135.845ZM128.75 61.5115V54.3346H132.655V61.5115H131.638V55.0495H129.685V61.5115H128.75ZM121.821 61.5115V54.3346H122.673V59.3392L124.791 54.3346H125.506V61.5115H124.653V56.4519L122.563 61.5115H121.821ZM118.136 62.8589L118.054 61.539H114.232V54.3621H115.167V60.8241H117.201V54.3621H118.219V60.8241H118.934V62.8589H118.136ZM107.165 61.5115V54.3346H108.182V57.4418H109.969V54.3346H110.987V61.5115H109.969V58.1568H108.182V61.5115H107.165ZM100.29 61.5115V54.3346H101.143V59.3392L103.178 54.3346H103.947V61.5115H103.013V56.4519L100.978 61.5115H100.29ZM94.9282 57.4693H95.3957C95.6432 57.4693 95.8632 57.4693 96.0281 57.3869C96.2481 57.3044 96.3306 57.1669 96.4131 57.0019C96.4956 56.8369 96.4956 56.6169 96.4956 56.3694C96.4956 55.9845 96.4956 55.737 96.4131 55.5995C96.4131 55.3795 96.2481 55.297 96.1106 55.2145C95.9456 55.132 95.7257 55.0495 95.3957 55.0495H94.9282V57.4693ZM93.9108 61.5115V54.3346H95.6982C96.0831 54.3346 96.4681 54.4171 96.7156 54.5546C96.9631 54.7196 97.183 54.9396 97.2655 55.2695C97.4305 55.572 97.4305 55.902 97.4305 56.3694C97.4305 56.6719 97.4305 57.0019 97.2655 57.3044C97.1005 57.6068 96.9631 57.7718 96.6331 57.9368C96.4131 58.1018 96.0831 58.1568 95.6982 58.1568H94.9282V61.5115H93.9108ZM86.8164 61.5115V54.3346H90.7211V61.5115H89.7037V55.0495H87.7513V61.5115H86.8164Z" fill="#8C8C8C"/>
</g>
<defs>
<clipPath id="clip0_4565_1366">
<rect width="300" height="62.7498" fill="white" transform="translate(0.5)"/>
</clipPath>
</defs>
</svg>
